<?xml version="1.0" standalone="no"?>
<svg
  width="600"
  height="600"
  viewBox="0 0 600 600"
  xmlns="http://www.w3.org/2000/svg"
>
  <g transform="translate(300,300)">
    <path d="M114.2,-147.4C148.6,-107.1,177.7,-71.8,199.4,-24.1C221,23.7,235.2,83.8,209.3,113.4C183.4,143,117.3,142,66,144.9C14.6,147.8,-22.1,154.7,-70.8,154.4C-119.5,154.1,-180.1,146.5,-217.3,111.3C-254.4,76.1,-268,13.2,-247.4,-33.2C-226.8,-79.6,-171.9,-109.5,-124.9,-147.6C-78,-185.6,-39,-231.8,0.4,-232.3C39.9,-232.8,79.7,-187.7,114.2,-147.4Z" fill="#14ffec" />
  </g>
</svg>
  