<?xml version="1.0" standalone="no"?><svg xmlns="http://www.w3.org/2000/svg" viewBox="0 0 1440 320"><path fill="#14ffec" fill-opacity="1" d="M0,0L40,48C80,96,160,192,240,218.7C320,245,400,203,480,165.3C560,128,640,96,720,122.7C800,149,880,235,960,272C1040,309,1120,299,1200,293.3C1280,288,1360,288,1400,288L1440,288L1440,320L1400,320C1360,320,1280,320,1200,320C1120,320,1040,320,960,320C880,320,800,320,720,320C640,320,560,320,480,320C400,320,320,320,240,320C160,320,80,320,40,320L0,320Z"></path></svg>